<svg id="svg" version="1.1" xmlns="http://www.w3.org/2000/svg" xmlns:xlink="http://www.w3.org/1999/xlink" width="400" height="463.87434554973817" viewBox="0, 0, 400,463.87434554973817"><g id="svgg"><path id="path0" d="M29.854 18.184 C 18.983 24.730,4.000 43.271,4.000 50.177 C 4.000 50.478,30.415 77.209,62.700 109.580 L 121.400 168.435 126.269 168.418 C 132.587 168.395,134.484 166.915,135.341 161.339 C 135.482 160.426,136.137 158.536,136.798 157.139 C 137.459 155.743,138.000 154.379,138.000 154.108 C 138.000 153.837,139.080 152.424,140.400 150.968 C 141.720 149.511,142.800 148.124,142.800 147.886 C 142.800 146.844,156.212 133.927,158.512 132.755 C 159.783 132.107,161.511 130.955,162.352 130.196 C 163.853 128.840,167.961 127.216,169.918 127.205 C 170.423 127.202,171.278 126.758,171.818 126.218 L 172.800 125.236 172.800 71.647 C 172.800 23.462,172.737 17.994,172.171 17.429 C 171.605 16.862,164.674 16.800,101.848 16.800 L 32.153 16.800 29.854 18.184 M222.273 17.300 C 221.292 18.022,221.418 125.123,222.400 125.611 C 222.730 125.775,223.951 126.323,225.113 126.829 C 226.275 127.335,227.434 128.000,227.690 128.308 C 227.945 128.616,229.334 129.491,230.777 130.252 C 234.140 132.028,235.600 133.002,238.045 135.100 C 239.135 136.035,240.216 136.800,240.447 136.800 C 241.262 136.800,250.493 146.233,252.190 148.800 C 254.101 151.690,257.600 158.490,257.600 159.313 C 257.600 160.498,260.778 166.310,261.977 167.320 C 263.706 168.774,269.015 168.906,271.716 167.562 C 272.823 167.011,279.780 160.360,292.010 148.162 C 302.245 137.953,310.885 129.603,311.210 129.606 C 311.534 129.610,330.438 110.862,353.217 87.945 L 394.634 46.278 393.777 44.429 C 389.231 34.617,377.511 21.840,369.140 17.569 C 367.233 16.596,223.588 16.333,222.273 17.300 M188.600 146.214 C 187.940 146.517,186.842 146.772,186.160 146.782 C 185.425 146.793,182.172 148.193,178.160 150.225 L 171.400 153.651 166.546 158.474 C 161.316 163.669,159.390 166.583,160.388 167.785 C 161.152 168.706,233.234 168.723,233.998 167.802 C 234.576 167.105,234.087 166.174,232.106 164.200 C 231.444 163.540,230.452 162.280,229.901 161.400 C 227.273 157.204,222.883 153.652,216.156 150.283 C 212.893 148.649,211.124 148.019,204.765 146.229 C 201.819 145.400,190.401 145.390,188.600 146.214 M154.611 182.349 C 152.608 182.778,152.372 183.801,152.492 191.536 C 152.597 198.281,152.626 198.493,153.544 199.236 C 154.796 200.248,239.124 200.456,239.959 199.449 C 240.278 199.065,240.384 196.426,240.308 190.767 L 240.200 182.636 239.200 182.358 C 237.947 182.010,156.234 182.002,154.611 182.349 M125.000 210.940 C 123.360 211.705,116.199 218.728,85.200 249.973 C 64.410 270.929,46.860 288.346,46.200 288.679 C 44.611 289.480,8.800 325.212,8.800 325.997 C 8.800 326.930,11.580 330.973,15.208 335.315 C 21.289 342.594,29.708 348.922,38.400 352.746 C 40.050 353.472,41.760 354.228,42.200 354.426 C 43.784 355.139,49.483 356.756,53.600 357.660 L 57.800 358.583 115.300 358.706 L 172.800 358.828 172.800 307.040 C 172.800 273.790,172.658 254.879,172.404 254.209 C 172.032 253.232,168.614 251.214,167.314 251.204 C 167.047 251.202,165.976 250.660,164.936 250.000 C 163.895 249.340,162.781 248.800,162.459 248.800 C 162.138 248.800,161.319 248.380,160.638 247.867 C 159.957 247.354,158.297 246.351,156.950 245.638 C 153.112 243.607,139.007 229.222,137.106 225.400 C 135.583 222.338,132.800 214.214,132.800 212.831 C 132.800 210.139,128.798 209.169,125.000 210.940 M262.973 210.385 C 261.970 210.792,259.657 215.463,258.242 219.943 C 255.399 228.944,243.202 243.282,234.550 247.793 C 232.598 248.811,230.051 250.244,228.892 250.978 C 227.732 251.711,225.964 252.435,224.963 252.585 C 221.274 253.138,221.602 249.207,221.582 293.100 C 221.568 325.758,221.475 332.050,220.988 333.400 C 220.536 334.656,220.411 337.559,220.406 346.913 L 220.400 358.827 281.300 358.706 L 342.200 358.585 346.400 357.661 C 350.519 356.755,356.217 355.138,357.800 354.426 C 358.240 354.228,359.950 353.472,361.600 352.746 C 371.671 348.315,386.042 336.443,388.406 330.600 C 388.783 329.669,326.694 267.026,323.000 264.611 C 321.900 263.891,309.393 251.563,295.207 237.213 C 281.020 222.864,268.924 210.871,268.327 210.562 C 267.140 209.949,264.285 209.854,262.973 210.385 M161.042 214.120 C 159.011 215.605,171.538 228.266,176.196 229.435 C 176.846 229.598,178.775 230.422,180.484 231.266 C 182.193 232.110,183.922 232.800,184.325 232.800 C 184.728 232.800,185.872 233.078,186.868 233.417 C 191.038 234.838,206.592 233.769,210.400 231.800 C 211.156 231.409,213.361 230.575,215.299 229.947 C 220.664 228.208,221.336 227.735,228.000 221.002 C 233.851 215.090,234.156 214.706,233.424 214.169 C 232.318 213.359,162.147 213.312,161.042 214.120 M58.749 401.627 C 49.551 404.196,44.737 411.596,46.564 420.357 C 47.873 426.635,51.360 429.665,60.400 432.379 C 62.710 433.072,65.860 434.019,67.400 434.482 C 75.821 437.014,78.654 441.064,76.168 447.016 C 73.049 454.480,58.557 453.548,56.282 445.737 L 55.717 443.800 50.859 443.688 L 46.000 443.575 46.000 444.552 C 46.000 458.582,69.765 465.075,81.199 454.169 C 89.230 446.509,87.050 432.958,77.202 429.327 C 76.211 428.961,75.220 428.530,75.000 428.368 C 74.622 428.090,73.340 427.701,67.200 426.002 C 57.636 423.356,54.118 419.893,55.603 414.589 C 57.836 406.613,71.409 406.206,74.768 414.015 L 75.622 416.000 80.411 416.000 L 85.200 416.000 85.200 414.836 C 85.200 405.308,70.984 398.209,58.749 401.627 M94.800 405.200 L 94.800 408.800 102.600 408.800 L 110.400 408.800 110.400 434.000 L 110.400 459.200 114.997 459.200 L 119.594 459.200 119.697 434.100 L 119.800 409.000 127.400 408.800 L 135.000 408.600 135.116 405.100 L 135.231 401.600 115.016 401.600 L 94.800 401.600 94.800 405.200 M162.100 402.900 C 161.861 403.615,161.191 405.460,160.611 407.000 C 160.031 408.540,159.369 410.430,159.140 411.200 C 158.911 411.970,158.491 413.140,158.207 413.800 C 157.923 414.460,156.034 419.680,154.008 425.400 C 151.983 431.120,149.982 436.745,149.563 437.900 C 149.143 439.055,148.447 440.993,148.015 442.206 C 147.583 443.420,146.885 445.355,146.463 446.506 C 146.041 447.658,144.930 450.760,143.994 453.400 C 143.058 456.040,142.207 458.425,142.103 458.700 C 141.959 459.083,143.039 459.200,146.707 459.200 L 151.499 459.200 152.535 456.100 C 153.105 454.395,153.998 451.740,154.519 450.200 L 155.466 447.400 167.585 447.294 C 180.429 447.182,180.522 447.194,180.979 449.116 C 181.121 449.712,181.583 451.100,182.005 452.200 C 182.427 453.300,183.163 455.325,183.640 456.700 L 184.507 459.200 189.234 459.200 L 193.962 459.200 193.416 457.500 C 193.116 456.565,192.243 454.065,191.476 451.944 C 190.709 449.824,188.512 443.704,186.595 438.344 C 184.678 432.985,182.764 427.658,182.340 426.506 C 180.802 422.326,179.979 420.037,176.727 410.900 L 173.416 401.600 167.975 401.600 L 162.534 401.600 162.100 402.900 M202.805 403.100 C 203.257 403.925,204.153 405.410,204.796 406.400 C 205.438 407.390,206.609 409.280,207.397 410.600 C 208.587 412.592,212.477 418.786,215.938 424.200 C 219.942 430.462,219.961 430.508,219.068 431.569 C 218.776 431.916,216.771 435.080,214.612 438.600 C 212.454 442.120,210.115 445.900,209.414 447.000 C 208.713 448.100,207.357 450.260,206.400 451.800 C 205.443 453.340,204.061 455.531,203.330 456.668 C 202.598 457.805,202.000 458.840,202.000 458.968 C 202.000 459.096,204.239 459.200,206.976 459.200 L 211.952 459.200 215.010 453.900 C 221.958 441.862,223.899 438.634,224.265 438.512 C 224.477 438.441,225.523 439.782,226.590 441.492 C 227.657 443.201,229.041 445.410,229.666 446.400 C 230.290 447.390,232.305 450.630,234.142 453.600 L 237.484 459.000 242.579 459.112 C 245.382 459.174,247.613 459.084,247.537 458.912 C 247.352 458.490,244.368 453.640,242.177 450.200 C 241.196 448.660,240.029 446.770,239.583 446.000 C 239.138 445.230,238.247 443.790,237.604 442.800 C 236.962 441.810,235.789 439.920,234.998 438.600 C 234.207 437.280,232.756 434.941,231.775 433.402 C 229.587 429.972,228.451 432.604,240.282 413.689 C 241.207 412.210,242.334 410.370,242.787 409.600 C 243.239 408.830,244.507 406.791,245.605 405.069 C 246.702 403.347,247.600 401.862,247.600 401.769 C 247.600 401.676,245.369 401.600,242.642 401.600 L 237.684 401.600 235.434 405.500 C 227.688 418.925,225.754 422.149,225.371 422.277 C 225.134 422.355,223.799 420.570,222.404 418.310 C 221.009 416.049,219.298 413.300,218.603 412.200 C 217.909 411.100,216.560 408.940,215.606 407.400 C 214.652 405.860,213.426 403.925,212.881 403.100 L 211.891 401.600 206.937 401.600 L 201.984 401.600 202.805 403.100 M258.800 430.400 L 258.800 459.200 274.600 459.200 L 290.400 459.200 290.400 455.400 L 290.400 451.600 279.200 451.600 L 268.000 451.600 268.000 442.600 L 268.000 433.600 278.015 433.600 L 288.030 433.600 287.915 429.900 L 287.800 426.200 277.900 426.093 L 268.000 425.986 268.000 417.393 L 268.000 408.800 279.200 408.800 L 290.400 408.800 290.400 405.200 L 290.400 401.600 274.600 401.600 L 258.800 401.600 258.800 430.400 M302.800 430.400 L 302.800 459.200 307.400 459.200 L 312.000 459.200 312.000 447.600 L 312.000 436.000 315.769 436.000 L 319.539 436.000 324.428 444.500 C 327.118 449.175,330.121 454.395,331.102 456.100 L 332.885 459.200 338.257 459.200 L 343.628 459.200 343.149 458.300 C 342.885 457.805,340.531 453.837,337.916 449.482 C 332.038 439.689,332.046 439.701,330.689 437.370 C 329.414 435.178,329.367 435.255,332.781 433.971 C 343.229 430.042,346.296 415.040,338.288 407.038 C 333.655 402.407,330.089 401.600,314.267 401.600 L 302.800 401.600 302.800 430.400 M326.036 409.207 C 331.037 410.155,333.400 413.169,333.400 418.600 C 333.400 426.384,329.872 428.800,318.506 428.800 L 312.000 428.800 312.000 418.800 L 312.000 408.800 317.945 408.800 C 321.215 408.800,324.856 408.983,326.036 409.207 M169.142 415.200 C 169.369 415.970,170.393 418.940,171.418 421.800 C 172.442 424.660,173.613 427.990,174.018 429.200 C 174.424 430.410,175.394 433.200,176.174 435.400 C 176.954 437.600,177.594 439.535,177.596 439.700 C 177.598 439.865,173.280 440.000,168.000 440.000 C 161.082 440.000,158.400 439.873,158.400 439.544 C 158.400 439.133,160.855 431.918,162.192 428.400 C 162.485 427.630,163.660 424.300,164.804 421.000 C 167.874 412.138,167.641 412.666,168.224 413.274 C 168.502 413.563,168.915 414.430,169.142 415.200 " stroke="none" fill="#070707" fill-rule="evenodd"></path><path id="path1" d="M0.000 231.800 L 0.000 463.600 200.000 463.600 L 400.000 463.600 400.000 231.800 L 400.000 0.000 200.000 0.000 L 0.000 0.000 0.000 231.800 M173.832 16.176 C 174.316 16.838,174.400 25.025,174.400 71.516 L 174.400 126.080 173.040 127.440 C 172.096 128.384,171.312 128.800,170.476 128.800 C 168.589 128.800,164.776 130.387,162.800 131.994 C 161.810 132.800,160.103 133.896,159.007 134.429 C 156.759 135.525,146.644 145.312,144.453 148.513 C 143.733 149.566,142.438 151.186,141.576 152.113 C 140.714 153.041,139.802 154.430,139.549 155.200 C 139.297 155.970,138.670 157.440,138.155 158.467 C 137.641 159.494,137.100 161.114,136.953 162.067 C 136.582 164.479,135.116 167.240,133.412 168.736 L 131.972 170.000 126.286 170.016 L 120.600 170.032 61.914 111.116 C 21.481 70.524,3.224 51.936,3.214 51.350 C 3.078 43.201,19.903 22.700,31.713 16.625 L 34.495 15.193 103.880 15.297 C 172.039 15.398,173.275 15.414,173.832 16.176 M368.294 16.628 C 378.613 21.936,392.587 37.623,395.351 47.000 C 395.595 47.828,314.429 129.569,311.200 131.747 C 310.430 132.267,301.880 140.650,292.200 150.377 C 271.922 170.753,272.903 170.000,266.614 170.000 L 262.402 170.000 260.851 168.599 C 259.344 167.237,256.771 162.622,256.161 160.183 C 254.616 154.016,245.955 142.845,238.650 137.600 C 237.578 136.830,235.598 135.410,234.250 134.445 C 232.903 133.480,231.080 132.319,230.200 131.865 C 229.320 131.412,227.610 130.374,226.400 129.559 C 225.190 128.744,223.438 127.873,222.507 127.625 C 221.576 127.376,220.631 126.831,220.407 126.413 C 219.500 124.718,219.884 16.916,220.800 16.000 C 221.594 15.206,222.133 15.200,293.559 15.200 L 365.518 15.200 368.294 16.628 M204.674 144.458 C 205.293 144.710,206.610 145.055,207.600 145.224 C 215.695 146.608,225.973 153.188,231.305 160.400 C 232.200 161.610,233.622 163.361,234.466 164.291 C 236.172 166.171,236.491 167.994,235.338 169.269 C 234.361 170.348,160.322 170.416,159.131 169.338 C 157.000 167.409,158.531 164.535,165.398 157.573 L 170.980 151.914 177.686 148.557 C 181.876 146.459,184.880 145.195,185.696 145.186 C 186.413 145.178,187.450 144.914,188.000 144.600 C 189.282 143.867,202.935 143.751,204.674 144.458 M241.486 181.314 C 242.610 182.438,242.568 199.508,241.438 200.758 L 240.676 201.600 197.013 201.600 L 153.350 201.600 152.175 200.375 L 151.000 199.150 150.875 191.719 C 150.736 183.469,150.950 182.387,152.968 181.151 C 154.832 180.010,240.339 180.167,241.486 181.314 M132.421 209.076 C 133.615 209.781,134.174 210.837,134.605 213.200 C 134.851 214.542,135.716 217.313,136.417 219.000 C 136.600 219.440,136.866 220.250,137.008 220.800 C 138.252 225.626,152.567 241.547,158.400 244.593 C 164.713 247.889,170.654 250.799,171.072 250.800 C 171.331 250.800,172.186 251.406,172.972 252.147 L 174.400 253.494 174.400 306.104 C 174.400 353.709,174.340 358.738,173.767 358.957 C 171.781 359.720,61.152 359.194,56.195 358.399 C 40.836 355.935,29.343 350.129,18.589 339.400 C 13.261 334.085,7.600 326.544,7.600 324.763 C 7.600 324.056,43.334 288.363,45.057 287.349 C 45.968 286.813,63.812 269.206,84.711 248.223 C 113.323 219.493,123.139 209.873,124.454 209.269 C 126.724 208.227,130.816 208.128,132.421 209.076 M269.011 208.967 C 269.445 209.279,281.320 221.085,295.400 235.203 C 309.480 249.321,322.260 261.816,323.800 262.970 C 326.853 265.259,389.316 328.032,389.534 329.031 C 389.930 330.851,379.409 342.217,373.400 346.459 C 364.194 352.960,355.270 356.560,343.805 358.399 C 338.848 359.194,221.424 359.721,219.433 358.957 C 218.532 358.611,218.492 335.088,219.388 332.600 C 219.875 331.250,219.968 324.969,219.982 292.389 C 219.998 257.358,220.060 253.692,220.652 252.847 C 221.398 251.782,223.488 250.800,225.008 250.800 C 225.577 250.800,227.248 250.024,228.721 249.075 C 230.195 248.126,232.656 246.731,234.190 245.975 C 237.143 244.520,249.150 233.352,251.582 229.800 C 253.353 227.211,255.811 222.027,256.796 218.800 C 258.071 214.626,260.662 209.703,261.952 209.001 C 263.346 208.244,267.974 208.222,269.011 208.967 M234.540 212.377 C 237.331 213.439,236.374 215.108,228.532 222.854 C 222.348 228.962,220.412 230.392,217.483 231.018 C 216.777 231.169,216.020 231.427,215.800 231.591 C 215.580 231.755,214.860 232.016,214.200 232.171 C 213.540 232.325,212.100 232.870,211.000 233.381 C 209.900 233.893,208.190 234.441,207.200 234.601 C 206.210 234.760,205.193 235.057,204.941 235.260 C 204.678 235.472,200.748 235.565,195.741 235.478 C 185.809 235.306,184.033 234.988,178.821 232.447 C 176.963 231.541,175.211 230.800,174.929 230.800 C 172.807 230.800,163.148 222.118,160.120 217.489 C 158.163 214.497,158.038 213.303,159.600 212.516 C 160.837 211.893,232.914 211.759,234.540 212.377 M71.000 400.858 C 78.841 402.102,84.503 407.465,85.823 414.900 L 86.089 416.400 80.445 416.400 L 74.800 416.400 74.800 415.460 C 74.800 408.621,60.412 406.460,56.867 412.766 C 53.811 418.205,57.154 422.819,65.760 425.039 C 81.742 429.161,86.181 432.976,86.194 442.600 C 86.200 447.103,86.127 447.548,85.027 449.800 C 77.305 465.596,47.497 462.485,45.747 445.700 L 45.486 443.200 50.711 443.200 L 55.936 443.200 56.612 445.237 C 59.864 455.026,76.400 453.460,76.400 443.363 C 76.400 438.337,74.206 436.848,61.400 433.185 C 51.219 430.273,47.012 426.697,45.985 420.082 C 44.383 409.756,50.648 402.069,61.805 400.668 C 66.010 400.140,66.537 400.151,71.000 400.858 M173.423 401.106 C 173.656 401.268,175.158 405.090,176.761 409.600 C 178.365 414.110,179.907 418.430,180.188 419.200 C 180.469 419.970,181.060 421.590,181.502 422.800 C 182.330 425.070,186.131 435.663,188.894 443.400 C 189.758 445.820,191.274 450.050,192.264 452.800 C 195.015 460.451,195.391 459.600,189.262 459.600 L 184.031 459.600 183.432 457.700 C 183.103 456.655,182.196 454.015,181.417 451.833 C 180.638 449.651,180.000 447.806,180.000 447.733 C 180.000 447.456,156.579 447.626,156.149 447.906 C 155.901 448.068,155.139 449.820,154.456 451.800 C 153.772 453.780,152.887 456.300,152.488 457.400 L 151.763 459.400 146.682 459.512 C 143.017 459.593,141.600 459.494,141.600 459.158 C 141.600 458.695,144.939 449.198,148.616 439.200 C 148.899 438.430,151.589 430.870,154.593 422.400 C 157.596 413.930,160.312 406.409,160.627 405.686 C 160.942 404.964,161.200 404.193,161.200 403.974 C 161.200 403.754,161.461 402.950,161.780 402.187 L 162.359 400.800 167.680 400.806 C 170.606 400.809,173.190 400.944,173.423 401.106 M291.000 405.000 L 291.000 409.000 279.700 409.106 L 268.400 409.212 268.400 417.406 L 268.400 425.600 277.767 425.600 C 289.417 425.600,288.400 425.175,288.400 430.043 L 288.400 434.000 278.392 434.000 L 268.384 434.000 268.492 442.700 L 268.600 451.400 279.914 451.506 L 291.229 451.613 291.114 455.506 L 291.000 459.400 274.700 459.504 L 258.400 459.609 258.400 430.471 C 258.400 414.445,258.522 401.211,258.671 401.062 C 258.820 400.913,266.155 400.838,274.971 400.896 L 291.000 401.000 291.000 405.000 M135.600 405.200 L 135.600 409.200 127.800 409.200 L 120.000 409.200 120.000 434.412 L 120.000 459.625 115.100 459.512 L 110.200 459.400 110.097 434.300 L 109.994 409.200 102.397 409.200 L 94.800 409.200 94.800 405.200 L 94.800 401.200 115.200 401.200 L 135.600 401.200 135.600 405.200 M214.802 405.300 C 216.194 407.555,217.902 410.300,218.597 411.400 C 219.291 412.500,220.640 414.660,221.594 416.200 C 222.548 417.740,223.774 419.675,224.319 420.500 L 225.309 422.000 228.505 416.500 C 230.262 413.475,232.976 408.795,234.535 406.100 L 237.369 401.200 242.918 401.200 C 245.970 401.200,248.407 401.335,248.333 401.500 C 248.205 401.788,245.694 405.891,243.600 409.235 C 243.050 410.113,240.552 414.109,238.049 418.116 C 235.547 422.122,232.921 426.300,232.215 427.400 C 231.509 428.500,230.809 429.612,230.659 429.872 C 230.427 430.276,234.066 436.423,241.103 447.516 C 242.040 448.992,243.167 450.830,243.608 451.600 C 244.049 452.370,245.290 454.382,246.367 456.071 C 248.758 459.820,248.996 459.600,242.548 459.600 L 237.230 459.600 235.315 456.411 C 230.649 448.642,224.666 439.200,224.409 439.200 C 224.158 439.200,220.723 444.917,214.374 455.900 L 212.235 459.600 206.917 459.600 C 201.015 459.600,200.909 459.541,202.511 457.156 C 203.011 456.410,205.197 452.920,207.367 449.400 C 209.537 445.880,211.885 442.100,212.586 441.000 C 213.287 439.900,214.640 437.740,215.594 436.200 C 216.548 434.660,217.765 432.738,218.298 431.930 L 219.268 430.459 217.134 427.024 C 215.960 425.135,214.513 422.826,213.918 421.894 C 213.323 420.962,212.186 419.120,211.392 417.800 C 210.599 416.480,209.465 414.646,208.874 413.726 C 208.284 412.805,207.273 411.185,206.630 410.126 C 205.986 409.066,204.591 406.860,203.530 405.222 C 200.817 401.037,200.680 401.200,206.936 401.200 L 212.271 401.200 214.802 405.300 M331.800 402.447 C 347.316 409.013,347.380 429.844,331.900 434.783 C 331.075 435.047,330.400 435.428,330.400 435.630 C 330.400 435.962,335.600 444.942,337.795 448.400 C 340.202 452.193,344.000 458.783,344.000 459.167 C 344.000 459.458,342.117 459.600,338.268 459.600 L 332.535 459.600 329.629 454.500 C 328.031 451.695,325.053 446.520,323.012 443.000 L 319.301 436.600 315.751 436.600 L 312.200 436.600 312.094 448.100 L 311.988 459.600 307.194 459.600 L 302.400 459.600 302.400 430.376 L 302.400 401.152 315.900 401.292 C 329.309 401.431,329.416 401.439,331.800 402.447 M312.180 409.709 C 312.072 409.989,312.033 414.264,312.092 419.209 L 312.200 428.200 319.200 428.185 C 326.187 428.170,326.204 428.168,328.388 426.985 C 335.206 423.291,334.562 412.714,327.354 410.017 C 324.682 409.018,312.540 408.771,312.180 409.709 M167.325 415.102 C 167.084 415.926,166.039 418.940,165.004 421.800 C 163.969 424.660,162.795 427.990,162.395 429.200 C 161.996 430.410,161.023 433.187,160.234 435.370 C 159.445 437.554,158.800 439.399,158.800 439.470 C 158.800 439.542,162.850 439.600,167.800 439.600 C 174.874 439.600,176.800 439.490,176.800 439.085 C 176.800 438.587,176.325 437.180,172.516 426.400 C 171.544 423.650,170.203 419.780,169.537 417.800 C 168.062 413.420,167.882 413.201,167.325 415.102 " stroke="none" fill="#fbfbfb" fill-rule="evenodd"></path><path id="path2" d="M33.472 15.716 C 32.586 16.097,47.336 16.178,102.427 16.097 C 154.100 16.020,172.653 16.112,173.055 16.446 C 173.510 16.823,173.600 25.897,173.600 71.467 L 173.600 126.036 172.618 127.018 C 172.027 127.609,171.175 128.000,170.477 128.000 C 168.568 128.000,163.951 129.890,162.426 131.297 C 161.642 132.020,160.100 133.059,159.000 133.606 C 156.785 134.707,145.345 145.607,143.893 148.000 C 143.426 148.770,142.089 150.466,140.922 151.768 C 139.755 153.071,138.800 154.421,138.800 154.768 C 138.800 155.116,138.289 156.480,137.666 157.800 C 137.042 159.120,136.404 161.000,136.249 161.977 C 135.274 168.103,131.533 170.263,123.354 169.421 L 120.600 169.138 61.922 110.269 C 29.648 77.891,3.240 51.580,3.236 51.800 C 3.232 52.020,29.637 78.712,61.914 111.116 L 120.600 170.032 126.286 170.016 L 131.972 170.000 133.412 168.736 C 135.116 167.240,136.582 164.479,136.953 162.067 C 137.100 161.114,137.641 159.494,138.155 158.467 C 138.670 157.440,139.297 155.970,139.549 155.200 C 139.802 154.430,140.714 153.041,141.576 152.113 C 142.438 151.186,143.733 149.566,144.453 148.513 C 146.644 145.312,156.759 135.525,159.007 134.429 C 160.103 133.896,161.810 132.800,162.800 131.994 C 164.776 130.387,168.589 128.800,170.476 128.800 C 171.312 128.800,172.096 128.384,173.040 127.440 L 174.400 126.080 174.400 71.516 C 174.400 25.025,174.316 16.838,173.832 16.176 C 173.126 15.210,35.703 14.759,33.472 15.716 M220.800 16.000 C 219.884 16.916,219.500 124.718,220.407 126.413 C 220.631 126.831,221.576 127.376,222.507 127.625 C 223.438 127.873,225.190 128.744,226.400 129.559 C 227.610 130.374,229.320 131.412,230.200 131.865 C 231.080 132.319,232.903 133.480,234.250 134.445 C 235.598 135.410,237.578 136.830,238.650 137.600 C 245.955 142.845,254.616 154.016,256.161 160.183 C 256.771 162.622,259.344 167.237,260.851 168.599 L 262.402 170.000 266.614 170.000 C 272.903 170.000,271.922 170.753,292.200 150.377 C 301.880 140.650,310.430 132.267,311.200 131.747 C 312.720 130.722,395.591 47.995,395.597 47.497 C 395.603 46.961,393.941 48.603,353.160 89.448 C 331.072 111.571,312.100 130.257,311.000 130.972 C 309.900 131.688,301.311 140.100,291.913 149.666 C 279.999 161.792,274.246 167.371,272.913 168.088 C 269.377 169.990,263.431 170.016,261.200 168.139 C 260.154 167.259,256.800 161.053,256.800 159.997 C 256.800 155.949,246.534 142.187,240.518 138.171 C 239.372 137.406,238.329 136.609,238.199 136.398 C 237.881 135.884,232.488 132.277,230.109 130.988 C 229.059 130.419,227.210 129.324,226.000 128.555 C 224.790 127.786,223.309 127.055,222.709 126.930 C 220.477 126.467,220.600 129.693,220.600 71.400 C 220.600 26.027,220.689 17.216,221.152 16.658 C 221.663 16.042,227.068 16.001,294.679 16.097 C 351.885 16.178,367.412 16.096,366.528 15.718 C 364.240 14.741,221.784 15.016,220.800 16.000 M188.000 144.600 C 187.450 144.914,186.413 145.178,185.696 145.186 C 184.880 145.195,181.876 146.459,177.686 148.557 L 170.980 151.914 165.398 157.573 C 158.531 164.535,157.000 167.409,159.131 169.338 C 160.322 170.416,234.361 170.348,235.338 169.269 C 236.491 167.994,236.172 166.171,234.466 164.291 C 233.622 163.361,232.200 161.610,231.305 160.400 C 225.973 153.188,215.695 146.608,207.600 145.224 C 206.610 145.055,205.293 144.710,204.674 144.458 C 202.935 143.751,189.282 143.867,188.000 144.600 M204.853 145.228 C 205.293 145.464,206.496 145.805,207.527 145.987 C 215.064 147.317,227.218 154.939,230.493 160.390 C 230.959 161.165,232.219 162.746,233.294 163.901 C 235.932 166.738,235.973 168.819,233.400 169.272 C 231.384 169.627,163.980 169.692,161.424 169.341 C 157.045 168.741,158.235 165.616,165.716 158.068 L 171.000 152.737 177.696 149.368 C 181.378 147.516,184.888 145.992,185.496 145.982 C 186.103 145.972,187.140 145.717,187.800 145.414 C 189.311 144.723,203.616 144.567,204.853 145.228 M152.968 181.151 C 150.950 182.387,150.736 183.469,150.875 191.719 L 151.000 199.150 152.175 200.375 L 153.350 201.600 197.013 201.600 L 240.676 201.600 241.438 200.758 C 242.568 199.508,242.610 182.438,241.486 181.314 C 240.339 180.167,154.832 180.010,152.968 181.151 M240.822 182.022 C 241.836 183.036,241.888 199.474,240.880 200.481 C 240.318 201.042,160.086 201.518,155.646 200.987 C 151.732 200.518,151.600 200.200,151.600 191.187 L 151.600 183.538 152.769 182.369 L 153.938 181.200 196.969 181.200 C 239.848 181.200,240.003 181.203,240.822 182.022 M124.454 209.269 C 123.139 209.873,113.323 219.493,84.711 248.223 C 63.812 269.206,45.968 286.813,45.057 287.349 C 43.039 288.537,7.600 324.118,7.600 324.957 C 7.600 325.285,7.760 325.651,7.955 325.772 C 8.150 325.893,8.285 325.759,8.255 325.474 C 8.180 324.767,43.021 289.451,44.787 288.443 C 45.564 288.000,63.480 270.342,84.600 249.203 C 126.259 207.506,124.378 209.200,128.997 209.200 C 132.156 209.200,133.375 210.035,133.764 212.464 C 134.036 214.167,134.984 217.521,135.611 219.000 C 135.797 219.440,136.068 220.250,136.213 220.800 C 137.516 225.749,152.124 242.080,157.800 244.932 C 158.900 245.485,160.420 246.401,161.178 246.968 C 161.935 247.536,162.853 248.000,163.218 248.000 C 163.582 248.000,164.672 248.537,165.640 249.193 C 166.608 249.849,167.635 250.389,167.922 250.393 C 168.860 250.406,171.960 251.990,172.789 252.880 C 173.595 253.746,173.600 254.069,173.600 306.275 L 173.600 358.800 116.700 358.899 L 59.800 358.997 116.200 359.108 C 147.220 359.169,173.005 359.121,173.500 359.002 L 174.400 358.785 174.400 306.140 L 174.400 253.494 172.972 252.147 C 172.186 251.406,171.331 250.800,171.072 250.800 C 170.654 250.799,164.713 247.889,158.400 244.593 C 152.567 241.547,138.252 225.626,137.008 220.800 C 136.866 220.250,136.600 219.440,136.417 219.000 C 135.716 217.313,134.851 214.542,134.605 213.200 C 133.758 208.556,129.553 206.928,124.454 209.269 M261.952 209.001 C 260.662 209.703,258.071 214.626,256.796 218.800 C 255.811 222.027,253.353 227.211,251.582 229.800 C 249.150 233.352,237.143 244.520,234.190 245.975 C 232.656 246.731,230.195 248.126,228.721 249.075 C 227.248 250.024,225.577 250.800,225.008 250.800 C 223.488 250.800,221.398 251.782,220.652 252.847 C 220.060 253.692,219.998 257.358,219.982 292.389 C 219.968 324.969,219.875 331.250,219.388 332.600 C 218.934 333.861,218.811 336.808,218.806 346.492 L 218.800 358.785 219.700 359.002 C 220.195 359.121,247.510 359.169,280.400 359.108 L 340.200 358.997 279.943 358.899 C 225.423 358.809,219.662 358.740,219.443 358.167 C 218.954 356.893,219.178 335.858,219.696 334.397 C 220.071 333.338,220.241 323.470,220.396 293.600 C 220.508 271.930,220.757 253.878,220.948 253.485 C 221.396 252.567,223.266 251.600,224.593 251.600 C 225.688 251.600,229.365 249.903,229.802 249.196 C 229.945 248.966,231.712 247.957,233.731 246.954 C 242.813 242.441,254.300 228.906,257.552 218.887 C 260.171 210.817,261.546 209.200,265.782 209.200 L 268.586 209.200 295.793 236.343 C 310.757 251.271,323.630 263.860,324.400 264.317 C 325.170 264.775,329.121 268.536,333.180 272.675 C 337.239 276.814,351.537 291.214,364.955 304.676 C 389.265 329.067,389.348 329.156,388.869 330.276 C 388.417 331.330,388.426 331.350,389.009 330.603 C 389.350 330.164,389.578 329.493,389.515 329.112 C 389.346 328.094,327.098 265.442,323.800 262.970 C 322.260 261.816,309.480 249.321,295.400 235.203 C 281.320 221.085,269.445 209.279,269.011 208.967 C 267.974 208.222,263.346 208.244,261.952 209.001 M159.600 212.516 C 158.038 213.303,158.163 214.497,160.120 217.489 C 163.148 222.118,172.807 230.800,174.929 230.800 C 175.211 230.800,176.963 231.541,178.821 232.447 C 184.033 234.988,185.809 235.306,195.741 235.478 C 200.748 235.565,204.678 235.472,204.941 235.260 C 205.193 235.057,206.210 234.760,207.200 234.601 C 208.190 234.441,209.900 233.893,211.000 233.381 C 212.100 232.870,213.540 232.325,214.200 232.171 C 214.860 232.016,215.580 231.755,215.800 231.591 C 216.020 231.427,216.777 231.169,217.483 231.018 C 220.412 230.392,222.348 228.962,228.532 222.854 C 236.374 215.108,237.331 213.439,234.540 212.377 C 232.914 211.759,160.837 211.893,159.600 212.516 M234.426 213.214 C 235.902 214.004,235.166 215.043,228.300 221.862 C 220.675 229.434,221.097 229.127,216.138 230.734 C 214.192 231.365,211.872 232.253,210.981 232.707 C 210.091 233.162,208.651 233.657,207.781 233.808 C 206.912 233.959,205.429 234.334,204.486 234.642 C 202.105 235.417,189.895 235.417,187.514 234.642 C 186.571 234.334,185.118 233.965,184.284 233.820 C 183.450 233.676,181.123 232.757,179.113 231.779 C 177.103 230.800,175.218 230.000,174.925 230.000 C 170.933 230.000,157.277 214.760,159.900 213.232 C 160.878 212.662,233.363 212.645,234.426 213.214 M19.600 340.525 C 19.600 340.594,20.185 341.179,20.900 341.825 L 22.200 343.000 21.025 341.700 C 19.930 340.488,19.600 340.216,19.600 340.525 M378.975 341.700 L 377.800 343.000 379.100 341.825 C 379.815 341.179,380.400 340.594,380.400 340.525 C 380.400 340.216,380.070 340.488,378.975 341.700 M161.982 401.634 C 161.736 402.093,161.623 402.557,161.731 402.664 C 161.839 402.772,162.044 402.492,162.187 402.041 C 162.430 401.277,162.812 401.214,167.923 401.099 L 173.400 400.975 167.914 400.888 C 162.716 400.805,162.405 400.844,161.982 401.634 M258.586 401.295 C 258.480 401.573,258.441 414.850,258.499 430.800 L 258.605 459.800 258.703 430.500 L 258.800 401.200 274.800 401.200 L 290.800 401.200 290.800 404.994 L 290.800 408.787 279.900 408.903 L 269.000 409.019 280.000 409.009 L 291.000 409.000 291.000 405.000 L 291.000 401.000 274.889 400.895 C 262.215 400.813,258.737 400.899,258.586 401.295 M81.000 406.000 C 81.859 406.880,82.652 407.600,82.762 407.600 C 82.872 407.600,82.259 406.880,81.400 406.000 C 80.541 405.120,79.748 404.400,79.638 404.400 C 79.528 404.400,80.141 405.120,81.000 406.000 M110.092 434.076 C 110.041 447.868,110.135 459.236,110.300 459.338 C 110.572 459.507,110.568 441.305,110.291 418.000 C 110.232 413.050,110.143 420.284,110.092 434.076 M268.187 417.400 L 268.200 425.800 277.800 425.811 L 287.400 425.821 277.908 425.704 L 268.416 425.586 268.295 417.293 L 268.174 409.000 268.187 417.400 M329.600 410.925 C 329.600 410.994,330.185 411.579,330.900 412.225 L 332.200 413.400 331.025 412.100 C 329.930 410.888,329.600 410.616,329.600 410.925 M45.709 417.200 C 45.709 418.190,45.787 418.595,45.882 418.100 C 45.978 417.605,45.978 416.795,45.882 416.300 C 45.787 415.805,45.709 416.210,45.709 417.200 M343.301 418.600 C 343.305 419.480,343.387 419.793,343.483 419.295 C 343.579 418.798,343.575 418.078,343.475 417.695 C 343.375 417.313,343.296 417.720,343.301 418.600 M170.229 420.000 C 170.376 420.550,170.664 421.270,170.867 421.600 C 171.125 422.017,171.157 421.895,170.971 421.200 C 170.824 420.650,170.536 419.930,170.333 419.600 C 170.075 419.183,170.043 419.305,170.229 420.000 M338.181 430.900 L 336.600 432.600 338.300 431.019 C 339.881 429.548,340.184 429.200,339.881 429.200 C 339.816 429.200,339.051 429.965,338.181 430.900 M79.600 430.069 C 79.710 430.167,80.880 431.221,82.200 432.411 L 84.600 434.575 82.800 432.657 C 81.810 431.602,80.640 430.548,80.200 430.315 C 79.760 430.082,79.490 429.972,79.600 430.069 M268.080 442.476 C 268.036 447.248,268.135 451.237,268.300 451.339 C 268.465 451.442,268.554 448.887,268.497 445.663 C 268.306 434.842,268.162 433.737,268.080 442.476 M312.270 436.285 C 312.162 436.458,313.621 436.541,315.511 436.468 C 318.704 436.346,319.004 436.403,319.724 437.268 L 320.498 438.200 319.902 437.200 C 319.295 436.183,312.817 435.406,312.270 436.285 M76.493 443.200 C 76.493 443.970,76.575 444.285,76.676 443.900 C 76.776 443.515,76.776 442.885,76.676 442.500 C 76.575 442.115,76.493 442.430,76.493 443.200 M65.300 451.887 C 65.905 451.978,66.895 451.978,67.500 451.887 C 68.105 451.795,67.610 451.720,66.400 451.720 C 65.190 451.720,64.695 451.795,65.300 451.887 M290.797 455.482 C 290.689 457.727,290.742 459.421,290.916 459.246 C 291.090 459.071,291.178 457.234,291.113 455.164 L 290.995 451.400 290.797 455.482 M81.381 454.500 L 79.800 456.200 81.500 454.619 C 83.081 453.148,83.384 452.800,83.081 452.800 C 83.016 452.800,82.251 453.565,81.381 454.500 " stroke="none" fill="#a0a0a0" fill-rule="evenodd"></path><path id="path3" d="M33.000 16.398 C 32.546 16.594,62.366 16.756,101.871 16.772 C 164.652 16.797,171.605 16.862,172.171 17.429 C 172.737 17.994,172.800 23.462,172.800 71.647 L 172.800 125.236 171.818 126.218 C 171.278 126.758,170.423 127.202,169.918 127.205 C 167.961 127.216,163.853 128.840,162.352 130.196 C 161.511 130.955,159.783 132.107,158.512 132.755 C 156.212 133.927,142.800 146.844,142.800 147.886 C 142.800 148.124,141.720 149.511,140.400 150.968 C 139.080 152.424,138.000 153.837,138.000 154.108 C 138.000 154.379,137.459 155.743,136.798 157.139 C 136.137 158.536,135.482 160.426,135.341 161.339 C 134.484 166.915,132.587 168.395,126.269 168.418 L 121.400 168.435 62.665 109.544 C 6.348 53.079,3.939 50.604,4.169 49.456 C 4.463 47.986,4.099 48.261,3.642 49.853 C 3.318 50.985,4.856 52.569,62.154 110.123 L 121.000 169.231 126.041 169.216 C 132.652 169.195,135.957 166.828,135.991 162.089 C 135.996 161.367,136.540 159.707,137.200 158.400 C 137.860 157.093,138.400 155.660,138.400 155.216 C 138.400 154.772,139.279 153.438,140.353 152.252 C 141.428 151.065,142.906 149.178,143.640 148.058 C 145.767 144.809,156.220 134.695,158.791 133.399 C 159.996 132.791,161.796 131.634,162.791 130.827 C 164.530 129.415,167.394 128.287,170.445 127.810 C 173.678 127.305,173.387 132.636,173.504 71.840 C 173.594 25.466,173.527 17.653,173.037 16.982 C 172.418 16.137,34.933 15.563,33.000 16.398 M222.400 16.278 C 220.761 16.863,220.800 15.518,220.800 71.303 C 220.800 129.183,220.669 126.119,223.170 126.792 C 224.026 127.022,225.598 127.806,226.663 128.533 C 227.728 129.260,229.410 130.289,230.400 130.820 C 231.390 131.350,232.856 132.283,233.658 132.892 C 234.459 133.501,235.240 134.000,235.393 134.000 C 235.546 134.000,236.597 134.810,237.729 135.800 C 238.860 136.790,239.972 137.600,240.199 137.600 C 240.895 137.600,250.255 147.260,251.826 149.600 C 253.495 152.085,257.200 159.444,257.200 160.273 C 257.200 161.408,260.407 167.135,261.607 168.145 C 262.764 169.118,263.147 169.200,266.552 169.200 C 272.391 169.200,271.652 169.777,292.200 149.167 C 302.100 139.237,310.740 130.777,311.400 130.366 C 312.780 129.507,395.253 47.120,394.993 46.860 C 394.555 46.422,389.632 51.266,352.581 88.598 C 330.811 110.532,312.280 128.905,311.400 129.426 C 310.520 129.948,301.700 138.492,291.800 148.415 C 271.486 168.774,271.957 168.400,266.644 168.400 C 263.552 168.400,263.151 168.307,261.977 167.320 C 260.778 166.310,257.600 160.498,257.600 159.313 C 257.600 158.490,254.101 151.690,252.190 148.800 C 250.493 146.233,241.262 136.800,240.447 136.800 C 240.216 136.800,239.135 136.035,238.045 135.100 C 235.600 133.002,234.140 132.028,230.777 130.252 C 229.334 129.491,227.945 128.616,227.690 128.308 C 227.434 128.000,226.275 127.335,225.113 126.829 C 223.951 126.323,222.730 125.775,222.400 125.611 C 221.418 125.123,221.292 18.022,222.273 17.300 C 222.811 16.905,238.102 16.794,295.376 16.772 C 336.144 16.756,367.450 16.594,367.000 16.400 C 366.149 16.034,223.418 15.914,222.400 16.278 M18.181 27.300 L 16.600 29.000 18.300 27.419 C 19.881 25.948,20.184 25.600,19.881 25.600 C 19.816 25.600,19.051 26.365,18.181 27.300 M381.400 27.200 C 382.259 28.080,383.052 28.800,383.162 28.800 C 383.272 28.800,382.659 28.080,381.800 27.200 C 380.941 26.320,380.148 25.600,380.038 25.600 C 379.928 25.600,380.541 26.320,381.400 27.200 M188.722 145.363 C 187.909 145.653,186.504 146.009,185.601 146.153 C 184.698 146.298,181.133 147.838,177.679 149.577 L 171.400 152.737 166.107 158.068 C 159.604 164.618,157.865 167.657,159.974 168.786 C 161.400 169.549,233.802 169.341,234.571 168.571 C 235.634 167.509,235.287 166.488,233.028 164.030 C 231.833 162.730,230.590 161.157,230.265 160.533 C 229.582 159.221,223.976 153.812,221.966 152.526 C 217.966 149.965,208.843 146.011,206.898 145.994 C 206.514 145.991,205.480 145.729,204.600 145.412 C 202.455 144.639,190.850 144.603,188.722 145.363 M204.765 146.229 C 211.124 148.019,212.893 148.649,216.156 150.283 C 222.883 153.652,227.273 157.204,229.901 161.400 C 230.452 162.280,231.444 163.540,232.106 164.200 C 234.087 166.174,234.576 167.105,233.998 167.802 C 233.234 168.723,161.152 168.706,160.388 167.785 C 159.390 166.583,161.316 163.669,166.546 158.474 L 171.400 153.651 178.160 150.225 C 182.172 148.193,185.425 146.793,186.160 146.782 C 186.842 146.772,187.940 146.517,188.600 146.214 C 190.401 145.390,201.819 145.400,204.765 146.229 M152.870 182.526 C 152.038 183.411,152.000 183.792,152.000 191.297 L 152.000 199.142 153.054 199.971 C 154.500 201.108,239.440 201.303,240.571 200.171 C 241.387 199.356,241.522 182.882,240.720 182.080 C 240.353 181.713,230.095 181.600,196.990 181.600 L 153.739 181.600 152.870 182.526 M239.200 182.358 L 240.200 182.636 240.308 190.767 C 240.384 196.426,240.278 199.065,239.959 199.449 C 239.124 200.456,154.796 200.248,153.544 199.236 C 152.626 198.493,152.597 198.281,152.492 191.536 C 152.372 183.801,152.608 182.778,154.611 182.349 C 156.234 182.002,237.947 182.010,239.200 182.358 M125.904 209.745 C 123.292 210.719,123.044 210.958,84.534 249.611 C 63.730 270.493,45.964 288.014,45.053 288.548 C 42.389 290.109,7.960 325.030,8.275 325.852 C 8.510 326.463,8.564 326.454,8.833 325.764 C 9.273 324.640,44.791 289.389,46.200 288.679 C 46.860 288.346,64.410 270.929,85.200 249.973 C 125.937 208.912,124.734 210.012,128.918 210.004 C 131.074 210.000,132.800 211.256,132.800 212.831 C 132.800 214.214,135.583 222.338,137.106 225.400 C 139.007 229.222,153.112 243.607,156.950 245.638 C 158.297 246.351,159.957 247.354,160.638 247.867 C 161.319 248.380,162.138 248.800,162.459 248.800 C 162.781 248.800,163.895 249.340,164.936 250.000 C 165.976 250.660,167.047 251.202,167.314 251.204 C 168.614 251.214,172.032 253.232,172.404 254.209 C 172.658 254.879,172.800 273.785,172.800 307.026 C 172.800 341.275,172.935 358.800,173.200 358.800 C 173.738 358.800,173.753 255.255,173.215 253.841 C 172.842 252.859,169.493 250.800,168.269 250.800 C 167.963 250.800,167.012 250.324,166.156 249.742 C 165.300 249.160,163.970 248.513,163.200 248.304 C 162.430 248.094,161.440 247.600,161.000 247.205 C 160.560 246.810,159.210 245.991,158.000 245.384 C 154.754 243.758,139.608 228.711,137.945 225.460 C 136.472 222.580,133.614 214.191,133.606 212.722 C 133.591 209.964,129.528 208.394,125.904 209.745 M263.400 209.465 C 261.736 209.918,259.247 213.640,258.362 217.000 C 255.575 227.581,244.009 241.945,234.230 246.969 C 232.266 247.978,230.376 249.054,230.030 249.361 C 228.722 250.520,226.266 251.634,224.482 251.878 C 223.343 252.034,222.280 252.484,221.716 253.048 L 220.800 253.964 220.800 292.933 C 220.800 326.667,220.719 332.095,220.200 333.338 C 219.477 335.069,219.290 358.800,220.000 358.800 C 220.258 358.800,220.402 354.563,220.406 346.900 C 220.411 337.557,220.536 334.656,220.988 333.400 C 221.475 332.050,221.568 325.758,221.582 293.100 C 221.602 249.207,221.274 253.138,224.963 252.585 C 225.964 252.435,227.732 251.711,228.892 250.978 C 230.051 250.244,232.598 248.811,234.550 247.793 C 243.202 243.282,255.399 228.944,258.242 219.943 C 260.709 212.134,262.298 210.000,265.646 210.000 C 268.282 210.000,268.490 210.191,295.384 237.392 C 309.670 251.840,321.908 263.936,322.579 264.271 C 324.540 265.250,388.764 329.605,388.534 330.361 C 388.403 330.793,388.495 330.757,388.818 330.250 C 389.245 329.580,387.983 328.179,376.923 317.050 C 370.117 310.203,355.741 295.723,344.975 284.873 C 334.209 274.023,324.770 264.773,324.000 264.317 C 323.230 263.861,310.440 251.353,295.578 236.523 L 268.556 209.558 266.378 209.403 C 265.180 209.317,263.840 209.345,263.400 209.465 M159.869 213.465 C 157.969 215.364,171.792 230.000,175.486 230.000 C 175.777 230.000,177.629 230.810,179.600 231.800 C 181.596 232.803,183.763 233.606,184.492 233.614 C 185.211 233.622,186.250 233.886,186.800 234.200 C 188.280 235.046,203.037 235.046,205.062 234.200 C 205.851 233.870,206.937 233.600,207.474 233.600 C 208.012 233.600,209.462 233.138,210.698 232.572 C 211.933 232.007,214.307 231.103,215.972 230.563 C 221.004 228.932,221.561 228.536,228.333 221.791 C 233.606 216.538,234.841 215.101,234.733 214.341 L 234.600 213.400 197.369 213.298 C 176.892 213.242,160.017 213.317,159.869 213.465 M233.424 214.169 C 234.156 214.706,233.851 215.090,228.000 221.002 C 221.336 227.735,220.664 228.208,215.299 229.947 C 213.361 230.575,211.156 231.409,210.400 231.800 C 206.592 233.769,191.038 234.838,186.868 233.417 C 185.872 233.078,184.728 232.800,184.325 232.800 C 183.922 232.800,182.193 232.110,180.484 231.266 C 178.775 230.422,176.846 229.598,176.196 229.435 C 171.538 228.266,159.011 215.605,161.042 214.120 C 162.147 213.312,232.318 213.359,233.424 214.169 M64.700 400.682 C 65.195 400.778,66.005 400.778,66.500 400.682 C 66.995 400.587,66.590 400.509,65.600 400.509 C 64.610 400.509,64.205 400.587,64.700 400.682 M104.928 401.500 C 110.608 401.562,119.788 401.562,125.328 401.500 C 130.868 401.437,126.220 401.386,115.000 401.386 C 103.780 401.386,99.248 401.437,104.928 401.500 M165.100 401.497 C 166.695 401.573,169.305 401.573,170.900 401.497 C 172.495 401.421,171.190 401.359,168.000 401.359 C 164.810 401.359,163.505 401.421,165.100 401.497 M201.600 401.524 C 201.600 401.701,201.880 402.196,202.222 402.624 C 202.817 403.366,202.824 403.359,202.396 402.477 L 201.948 401.555 207.137 401.677 C 209.991 401.745,212.242 401.665,212.139 401.500 C 211.886 401.093,201.600 401.116,201.600 401.524 M237.462 401.500 C 237.360 401.665,239.689 401.800,242.638 401.800 C 245.587 401.800,248.000 401.665,248.000 401.500 C 248.000 401.335,245.671 401.200,242.824 401.200 C 239.977 401.200,237.564 401.335,237.462 401.500 M274.685 401.498 L 290.370 401.609 290.509 405.206 L 290.648 408.802 290.624 405.101 L 290.600 401.400 274.800 401.393 L 259.000 401.386 274.685 401.498 M302.584 401.700 C 302.479 401.975,302.441 415.070,302.499 430.800 L 302.605 459.400 302.703 430.506 L 302.800 401.612 314.500 401.500 L 326.200 401.387 314.487 401.294 C 305.416 401.221,302.732 401.313,302.584 401.700 M54.300 403.029 C 52.805 403.840,52.896 404.178,54.400 403.400 C 55.060 403.059,55.600 402.694,55.600 402.590 C 55.600 402.332,55.557 402.347,54.300 403.029 M80.783 406.100 C 82.441 407.866,82.800 408.184,82.800 407.883 C 82.800 407.819,81.945 406.964,80.900 405.983 L 79.000 404.200 80.783 406.100 M62.400 408.626 C 63.746 408.923,68.727 409.002,68.281 408.718 C 68.017 408.550,66.450 408.430,64.800 408.453 C 63.150 408.475,62.070 408.553,62.400 408.626 M127.400 408.787 L 119.800 409.000 119.795 434.100 L 119.791 459.200 119.898 434.200 L 120.006 409.200 127.379 409.200 C 131.864 409.200,134.850 409.043,135.000 408.800 C 135.136 408.580,135.192 408.439,135.124 408.487 C 135.056 408.534,131.580 408.669,127.400 408.787 M98.721 409.099 C 100.988 409.170,104.588 409.170,106.721 409.098 C 108.855 409.026,107.000 408.968,102.600 408.968 C 98.200 408.968,96.455 409.027,98.721 409.099 M315.100 409.098 C 316.915 409.172,319.885 409.172,321.700 409.098 C 323.515 409.023,322.030 408.963,318.400 408.963 C 314.770 408.963,313.285 409.023,315.100 409.098 M57.375 411.300 L 56.200 412.600 57.500 411.425 C 58.215 410.779,58.800 410.194,58.800 410.125 C 58.800 409.816,58.470 410.088,57.375 411.300 M158.067 413.180 C 157.833 413.851,157.727 414.400,157.831 414.400 C 158.101 414.400,158.856 412.322,158.657 412.124 C 158.567 412.033,158.301 412.508,158.067 413.180 M46.093 414.800 C 46.093 415.570,46.175 415.885,46.276 415.500 C 46.376 415.115,46.376 414.485,46.276 414.100 C 46.175 413.715,46.093 414.030,46.093 414.800 M85.200 415.356 C 85.200 415.978,84.716 416.034,80.237 415.923 C 77.508 415.855,75.358 415.935,75.461 416.100 C 75.859 416.741,85.208 416.445,85.462 415.783 C 85.592 415.443,85.587 415.053,85.449 414.916 C 85.312 414.779,85.200 414.977,85.200 415.356 M55.293 416.400 C 55.293 417.170,55.375 417.485,55.476 417.100 C 55.576 416.715,55.576 416.085,55.476 415.700 C 55.375 415.315,55.293 415.630,55.293 416.400 M342.914 418.600 C 342.917 419.700,342.995 420.103,343.087 419.495 C 343.179 418.886,343.177 417.986,343.082 417.495 C 342.987 417.003,342.911 417.500,342.914 418.600 M332.500 422.900 C 332.070 424.075,332.080 424.126,332.612 423.424 C 333.121 422.752,333.421 421.600,333.088 421.600 C 333.026 421.600,332.761 422.185,332.500 422.900 M287.910 428.699 C 288.104 433.445,288.270 433.913,288.336 429.900 C 288.371 427.755,288.265 426.000,288.100 425.999 C 287.935 425.999,287.850 427.214,287.910 428.699 M173.029 427.200 C 173.176 427.750,173.464 428.470,173.667 428.800 C 173.925 429.217,173.957 429.095,173.771 428.400 C 173.624 427.850,173.336 427.130,173.133 426.800 C 172.875 426.383,172.843 426.505,173.029 427.200 M318.800 428.400 L 311.800 428.629 318.600 428.708 C 322.460 428.753,325.659 428.620,326.000 428.400 C 326.330 428.187,326.420 428.048,326.200 428.092 C 325.980 428.136,322.650 428.274,318.800 428.400 M219.000 430.400 C 219.000 431.018,219.135 431.440,219.300 431.338 C 219.465 431.236,219.600 430.814,219.600 430.400 C 219.600 429.986,219.465 429.564,219.300 429.462 C 219.135 429.360,219.000 429.782,219.000 430.400 M337.978 430.700 L 336.600 432.200 338.100 430.822 C 339.496 429.538,339.784 429.200,339.478 429.200 C 339.412 429.200,338.737 429.875,337.978 430.700 M65.000 434.000 C 65.440 434.189,66.070 434.344,66.400 434.344 C 66.778 434.344,66.704 434.217,66.200 434.000 C 65.760 433.811,65.130 433.656,64.800 433.656 C 64.422 433.656,64.496 433.783,65.000 434.000 M158.446 439.100 L 158.400 440.000 168.000 440.000 C 176.888 440.000,177.598 439.948,177.568 439.300 C 177.550 438.882,177.456 438.801,177.335 439.100 C 176.974 439.996,158.912 439.802,158.676 438.900 C 158.538 438.373,158.481 438.423,158.446 439.100 M45.867 443.467 C 45.720 443.613,45.603 443.928,45.606 444.167 C 45.610 444.407,45.760 444.367,45.945 444.076 C 46.197 443.678,47.449 443.581,51.102 443.676 C 53.755 443.744,55.842 443.665,55.739 443.500 C 55.509 443.129,46.235 443.098,45.867 443.467 M155.384 447.627 C 155.239 447.861,155.228 448.161,155.360 448.293 C 155.492 448.425,155.600 448.323,155.600 448.067 C 155.600 447.196,179.858 447.424,180.368 448.300 C 180.592 448.685,180.781 448.811,180.788 448.580 C 180.825 447.306,179.823 447.200,167.744 447.200 C 159.608 447.200,155.561 447.340,155.384 447.627 M144.444 451.244 C 144.198 451.951,144.066 452.600,144.152 452.685 C 144.238 452.771,144.509 452.262,144.756 451.556 C 145.002 450.849,145.134 450.200,145.048 450.115 C 144.962 450.029,144.691 450.538,144.444 451.244 M290.546 455.400 C 290.547 457.600,290.614 458.449,290.695 457.287 C 290.776 456.124,290.776 454.324,290.693 453.287 C 290.611 452.249,290.545 453.200,290.546 455.400 M81.381 454.100 L 79.800 455.800 81.500 454.219 C 83.081 452.748,83.384 452.400,83.081 452.400 C 83.016 452.400,82.251 453.165,81.381 454.100 M64.512 459.895 C 65.564 459.977,67.184 459.976,68.112 459.892 C 69.040 459.808,68.180 459.741,66.200 459.742 C 64.220 459.743,63.460 459.812,64.512 459.895 " stroke="none" fill="#747474" fill-rule="evenodd"></path><path id="path4" d="M172.300 16.412 C 172.795 16.611,173.200 16.990,173.200 17.254 C 173.200 17.518,173.316 17.618,173.457 17.476 C 173.847 17.086,172.791 15.997,172.051 16.025 C 171.610 16.043,171.691 16.168,172.300 16.412 M221.192 16.610 C 220.914 16.945,220.802 17.335,220.943 17.476 C 221.084 17.618,221.200 17.518,221.200 17.254 C 221.200 16.990,221.605 16.611,222.100 16.412 C 222.709 16.168,222.790 16.043,222.349 16.025 C 221.991 16.011,221.470 16.274,221.192 16.610 M220.594 71.400 C 220.594 100.440,220.642 112.261,220.700 97.669 C 220.758 83.077,220.758 59.317,220.700 44.869 C 220.642 30.421,220.594 42.360,220.594 71.400 M30.800 79.000 C 46.089 94.290,58.688 106.800,58.798 106.800 C 58.908 106.800,46.489 94.290,31.200 79.000 C 15.911 63.710,3.312 51.200,3.202 51.200 C 3.092 51.200,15.511 63.710,30.800 79.000 M352.599 89.700 L 317.400 125.000 352.700 89.801 C 372.115 70.441,388.000 54.556,388.000 54.501 C 388.000 54.221,385.322 56.884,352.599 89.700 M223.233 126.932 C 223.926 127.483,227.169 129.074,226.982 128.771 C 226.735 128.371,223.840 126.800,223.349 126.800 C 223.194 126.800,223.142 126.860,223.233 126.932 M227.818 129.629 C 228.077 130.048,231.200 131.723,231.200 131.442 C 231.200 131.347,230.386 130.813,229.391 130.257 C 228.395 129.701,227.688 129.418,227.818 129.629 M311.500 130.229 C 310.675 130.770,310.000 131.293,310.000 131.392 C 310.000 131.657,312.763 129.983,313.025 129.560 C 313.336 129.057,313.198 129.117,311.500 130.229 M161.694 131.612 C 160.975 132.265,160.537 132.800,160.719 132.800 C 160.901 132.800,161.568 132.260,162.200 131.600 C 163.670 130.065,163.386 130.072,161.694 131.612 M157.700 133.996 C 156.985 134.432,156.400 134.875,156.400 134.981 C 156.400 135.086,157.030 134.801,157.800 134.347 C 158.570 133.893,159.200 133.449,159.200 133.360 C 159.200 133.105,159.074 133.158,157.700 133.996 M102.600 151.200 C 112.278 160.880,120.287 168.800,120.397 168.800 C 120.507 168.800,112.678 160.880,103.000 151.200 C 93.322 141.520,85.313 133.600,85.203 133.600 C 85.093 133.600,92.922 141.520,102.600 151.200 M150.594 140.500 L 145.400 145.800 150.700 140.606 C 155.623 135.781,156.181 135.200,155.894 135.200 C 155.836 135.200,153.451 137.585,150.594 140.500 M165.795 158.100 L 160.200 163.800 165.900 158.205 C 171.195 153.008,171.781 152.400,171.495 152.400 C 171.437 152.400,168.872 154.965,165.795 158.100 M281.396 160.100 L 274.200 167.400 281.500 160.204 C 288.282 153.519,288.981 152.800,288.696 152.800 C 288.639 152.800,285.354 156.085,281.396 160.100 M224.000 153.710 C 224.000 153.771,225.395 155.166,227.100 156.810 L 230.200 159.800 227.210 156.700 C 224.433 153.821,224.000 153.417,224.000 153.710 M255.628 157.000 C 255.628 157.220,255.886 157.850,256.200 158.400 C 256.514 158.950,256.772 159.220,256.772 159.000 C 256.772 158.780,256.514 158.150,256.200 157.600 C 255.886 157.050,255.628 156.780,255.628 157.000 M232.783 163.700 C 233.764 164.745,234.619 165.600,234.683 165.600 C 234.984 165.600,234.666 165.241,232.900 163.583 L 231.000 161.800 232.783 163.700 M124.700 169.493 C 125.635 169.577,127.165 169.577,128.100 169.493 C 129.035 169.409,128.270 169.340,126.400 169.340 C 124.530 169.340,123.765 169.409,124.700 169.493 M179.500 169.500 C 189.235 169.560,205.165 169.560,214.900 169.500 C 224.635 169.440,216.670 169.391,197.200 169.391 C 177.730 169.391,169.765 169.440,179.500 169.500 M265.700 169.487 C 266.305 169.578,267.295 169.578,267.900 169.487 C 268.505 169.395,268.010 169.320,266.800 169.320 C 265.590 169.320,265.095 169.395,265.700 169.487 M175.269 181.500 C 187.077 181.559,206.517 181.559,218.469 181.500 C 230.421 181.441,220.760 181.393,197.000 181.393 C 173.240 181.393,163.461 181.441,175.269 181.500 M241.369 191.000 C 241.370 195.620,241.428 197.455,241.499 195.078 C 241.570 192.701,241.569 188.921,241.498 186.678 C 241.427 184.435,241.369 186.380,241.369 191.000 M151.767 191.200 C 151.767 195.490,151.826 197.245,151.898 195.100 C 151.970 192.955,151.970 189.445,151.898 187.300 C 151.826 185.155,151.767 186.910,151.767 191.200 M176.331 201.100 C 187.842 201.159,206.562 201.159,217.931 201.100 C 229.299 201.041,219.880 200.993,197.000 200.993 C 174.120 200.993,164.819 201.041,176.331 201.100 M295.600 236.600 C 310.449 251.450,322.688 263.600,322.798 263.600 C 322.908 263.600,310.849 251.450,296.000 236.600 C 281.151 221.750,268.912 209.600,268.802 209.600 C 268.692 209.600,280.751 221.750,295.600 236.600 M178.700 213.100 C 188.875 213.159,205.525 213.159,215.700 213.100 C 225.875 213.040,217.550 212.992,197.200 212.992 C 176.850 212.992,168.525 213.040,178.700 213.100 M159.467 213.467 C 159.105 213.828,159.128 215.108,159.500 215.338 C 159.665 215.440,159.800 215.001,159.800 214.362 C 159.800 213.723,159.785 213.200,159.767 213.200 C 159.748 213.200,159.613 213.320,159.467 213.467 M234.685 214.002 C 234.800 214.443,234.648 215.118,234.347 215.502 C 233.852 216.134,233.866 216.148,234.500 215.651 C 235.246 215.066,235.439 213.795,234.837 213.423 C 234.638 213.300,234.569 213.560,234.685 214.002 M165.800 223.200 C 167.771 225.180,169.473 226.800,169.583 226.800 C 169.693 226.800,168.171 225.180,166.200 223.200 C 164.229 221.220,162.527 219.600,162.417 219.600 C 162.307 219.600,163.829 221.220,165.800 223.200 M77.000 256.800 C 59.841 273.960,45.892 288.000,46.002 288.000 C 46.112 288.000,60.241 273.960,77.400 256.800 C 94.559 239.640,108.508 225.600,108.398 225.600 C 108.288 225.600,94.159 239.640,77.000 256.800 M147.613 236.100 C 152.356 240.885,156.499 244.795,156.818 244.788 C 157.201 244.780,157.126 244.627,156.600 244.341 C 156.160 244.101,152.018 240.192,147.395 235.653 L 138.990 227.400 147.613 236.100 M244.796 237.900 L 237.400 245.400 244.900 238.004 C 249.025 233.936,252.400 230.561,252.400 230.504 C 252.400 230.219,251.668 230.932,244.796 237.900 M192.300 235.098 C 194.335 235.171,197.665 235.171,199.700 235.098 C 201.735 235.025,200.070 234.966,196.000 234.966 C 191.930 234.966,190.265 235.025,192.300 235.098 M157.600 244.979 C 157.600 245.089,158.140 245.459,158.800 245.800 C 159.460 246.141,160.000 246.331,160.000 246.221 C 160.000 246.111,159.460 245.741,158.800 245.400 C 158.140 245.059,157.600 244.869,157.600 244.979 M220.592 294.000 C 220.592 315.230,220.641 323.915,220.700 313.300 C 220.759 302.685,220.759 285.315,220.700 274.700 C 220.641 264.085,220.592 272.770,220.592 294.000 M331.600 271.400 C 335.225 275.030,338.281 278.000,338.391 278.000 C 338.501 278.000,335.625 275.030,332.000 271.400 C 328.375 267.770,325.319 264.800,325.209 264.800 C 325.099 264.800,327.975 267.770,331.600 271.400 M38.194 294.500 L 33.000 299.800 38.300 294.606 C 41.215 291.749,43.600 289.364,43.600 289.306 C 43.600 289.019,43.019 289.577,38.194 294.500 M376.600 316.800 C 383.417 323.620,389.085 329.200,389.195 329.200 C 389.305 329.200,383.817 323.620,377.000 316.800 C 370.183 309.980,364.515 304.400,364.405 304.400 C 364.295 304.400,369.783 309.980,376.600 316.800 M8.975 324.100 L 7.800 325.400 9.100 324.225 C 9.815 323.579,10.400 322.994,10.400 322.925 C 10.400 322.616,10.070 322.888,8.975 324.100 M219.377 346.600 C 219.377 352.980,219.432 355.534,219.499 352.276 C 219.567 349.017,219.566 343.797,219.499 340.676 C 219.431 337.554,219.376 340.220,219.377 346.600 M17.200 338.125 C 17.200 338.194,17.785 338.779,18.500 339.425 L 19.800 340.600 18.625 339.300 C 17.530 338.088,17.200 337.816,17.200 338.125 M381.375 339.300 L 380.200 340.600 381.500 339.425 C 382.215 338.779,382.800 338.194,382.800 338.125 C 382.800 337.816,382.470 338.088,381.375 339.300 M135.197 405.282 C 135.089 407.417,135.142 409.020,135.316 408.845 C 135.491 408.670,135.579 406.923,135.514 404.964 L 135.394 401.400 135.197 405.282 M273.100 433.899 C 275.795 433.968,280.205 433.968,282.900 433.899 C 285.595 433.830,283.390 433.773,278.000 433.773 C 272.610 433.773,270.405 433.830,273.100 433.899 M141.952 459.314 C 142.126 459.486,144.322 459.575,146.834 459.512 L 151.400 459.396 146.518 459.198 C 143.834 459.089,141.779 459.141,141.952 459.314 M184.262 459.300 C 184.364 459.465,186.586 459.600,189.200 459.600 C 191.814 459.600,194.036 459.465,194.138 459.300 C 194.240 459.135,192.018 459.000,189.200 459.000 C 186.382 459.000,184.160 459.135,184.262 459.300 M112.900 459.496 C 114.165 459.575,116.235 459.575,117.500 459.496 C 118.765 459.416,117.730 459.351,115.200 459.351 C 112.670 459.351,111.635 459.416,112.900 459.496 M204.100 459.497 C 205.585 459.574,208.015 459.574,209.500 459.497 C 210.985 459.420,209.770 459.357,206.800 459.357 C 203.830 459.357,202.615 459.420,204.100 459.497 M240.117 459.497 C 241.611 459.574,243.951 459.574,245.317 459.496 C 246.682 459.418,245.460 459.355,242.600 459.355 C 239.740 459.356,238.622 459.420,240.117 459.497 M266.473 459.499 C 270.804 459.564,278.004 459.564,282.473 459.500 C 286.943 459.435,283.400 459.382,274.600 459.382 C 265.800 459.382,262.143 459.435,266.473 459.499 M305.116 459.497 C 306.499 459.575,308.659 459.574,309.916 459.495 C 311.172 459.416,310.040 459.352,307.400 459.353 C 304.760 459.353,303.732 459.418,305.116 459.497 M335.282 459.496 C 336.758 459.573,339.278 459.573,340.882 459.497 C 342.487 459.421,341.280 459.358,338.200 459.358 C 335.120 459.357,333.807 459.419,335.282 459.496 " stroke="none" fill="#848484" fill-rule="evenodd"></path></g></svg>